<?xml version="1.0" encoding="utf-8"?>
<!-- Generator: Adobe Illustrator 23.1.0, SVG Export Plug-In . SVG Version: 6.00 Build 0)  -->
<svg version="1.1" id="FOOD_TIME_Solutions" xmlns="http://www.w3.org/2000/svg" xmlns:xlink="http://www.w3.org/1999/xlink"
	 x="0px" y="0px" viewBox="0 0 566.93 566.93" style="enable-background:new 0 0 566.93 566.93;" xml:space="preserve">
<style type="text/css">
	.st0{fill:#FFFFFF;}
</style>
<g>
	<polygon class="st0" points="186.87,235.66 273.47,425.23 531.23,111.55 276.88,350.9 	"/>
	<g>
		<path class="st0" d="M280.28,56.77c-125.01,0-229.34,104.32-229.34,229.34c0,125.03,104.34,229.35,229.34,229.35
			c8.44,0,16.77-0.51,24.99-1.44c-4.14,0.25-8.3,0.41-12.5,0.41c-115.91,0-212.65-96.73-212.65-212.66
			c0-115.92,96.74-212.65,212.65-212.65c62.96,0,120.22,28.57,159.44,73.22l12.17-11.64C422.29,94.04,354.99,56.77,280.28,56.77z"/>
		<path class="st0" d="M509.63,286.12c0-32.33-7.02-63.25-19.53-91.36l-9.58,8.41c15.84,29.62,24.91,63.21,24.91,98.62
			c0,20.05-2.95,39.5-8.34,58C505.17,336.57,509.63,311.79,509.63,286.12z"/>
	</g>
	<path class="st0" d="M290.74,201.34c-25.89,0-47.51,21.61-47.51,47.51c0,25.9,21.61,47.51,47.51,47.51
		c25.9,0,47.51-21.61,47.51-47.51C338.25,222.94,316.64,201.34,290.74,201.34z"/>
	<path class="st0" d="M348.24,126.01c-4.2-2.12-9.16-3.38-14.94-3.38c-6.08,0-11.24,1.4-15.56,3.73
		c-2.93-7.4-8.41-13.66-16.43-16.88c-3.88-1.71-8.38-2.7-13.52-2.7c-0.15,0-0.3,0.02-0.45,0.02c-0.14,0-0.26-0.02-0.4-0.02
		c-15.08,0-24.74,8.37-29.05,19.1c-4.06-1.92-8.77-3.08-14.25-3.08c-2.53,0-4.9,0.26-7.13,0.7c-8.27,1.38-14.53,5.55-18.78,11.17
		c-10.36,12.47-10.11,32.97,0.74,45.04c4.18,5.48,10.29,9.55,18.31,11.01c1.17,0.6,9.96,5.61,10.44,20.73
		c0,0,25.39-36.59,71.98-15.74c0.75,0.34,1.48,0.69,2.19,1.03c0.29,0.14,0.58,0.29,0.88,0.43c5.83,2.9,10.02,5.58,10.02,5.58
		c0.86-8.83,6.64-12,9.83-13.09c0.44-0.11,0.85-0.25,1.28-0.38c0.51-0.12,0.83-0.17,0.83-0.17l-0.01-0.1
		c7.02-2.25,12.32-6.67,15.83-12.25C371.57,161,367.64,134.41,348.24,126.01z"/>
</g>
</svg>
